<?xml version="1.0" encoding="UTF-8" standalone="no"?>
<svg
   xmlns:dc="http://purl.org/dc/elements/1.1/"
   xmlns:cc="http://creativecommons.org/ns#"
   xmlns:rdf="http://www.w3.org/1999/02/22-rdf-syntax-ns#"
   xmlns:svg="http://www.w3.org/2000/svg"
   xmlns="http://www.w3.org/2000/svg"
   xmlns:sodipodi="http://sodipodi.sourceforge.net/DTD/sodipodi-0.dtd"
   xmlns:inkscape="http://www.inkscape.org/namespaces/inkscape"
   sodipodi:docname="drawing.svg"
   inkscape:version="1.0 (6e3e5246a0, 2020-05-07)"
   id="svg8"
   version="1.1"
   viewBox="0 0 81.572823 34.903255"
   height="34.903255mm"
   width="81.572823mm">
  <defs
     id="defs2">
    <rect
       id="rect18"
       height="40.235065"
       width="52.631592"
       y="107.69911"
       x="75.583473" />
    <rect
       id="rect12"
       height="64.537056"
       width="140.62749"
       y="87.319733"
       x="39.024853" />
  </defs>
  <sodipodi:namedview
     fit-margin-bottom="0"
     fit-margin-right="0"
     fit-margin-left="0"
     fit-margin-top="0"
     inkscape:window-maximized="1"
     inkscape:window-y="27"
     inkscape:window-x="0"
     inkscape:window-height="704"
     inkscape:window-width="1366"
     showgrid="false"
     inkscape:document-rotation="0"
     inkscape:current-layer="text10"
     inkscape:document-units="mm"
     inkscape:cy="69.525064"
     inkscape:cx="165.69095"
     inkscape:zoom="1.8509267"
     inkscape:pageshadow="2"
     inkscape:pageopacity="0.0"
     borderopacity="1.0"
     bordercolor="#666666"
     pagecolor="#ffffff"
     id="base" />
  <metadata
     id="metadata5">
    <rdf:RDF>
      <cc:Work
         rdf:about="">
        <dc:format>image/svg+xml</dc:format>
        <dc:type
           rdf:resource="http://purl.org/dc/dcmitype/StillImage" />
        <dc:title></dc:title>
      </cc:Work>
    </rdf:RDF>
  </metadata>
  <g
     transform="translate(-56.018082,-43.90108)"
     id="layer1"
     inkscape:groupmode="layer"
     inkscape:label="Layer 1">
    <g
       style="font-size:10.5833px;line-height:1.25;font-family:Chandas;-inkscape-font-specification:Chandas;white-space:pre;shape-inside:url(#rect12)"
       id="text10"
       transform="translate(-33.932316,-19.182053)"
       aria-label="Grocery
Store">
      <g
         id="g926">
        <path
           style="fill:#552200;fill-opacity:1;stroke:#552200;stroke-width:0.264583px;stroke-linecap:butt;stroke-linejoin:miter;stroke-opacity:1"
           d="m 137.29613,87.280133 c 1.22259,-1.446716 1.38167,-1.66642 2.09499,-2.477964 -3.48777,-0.0025 -1.59322,-2.181312 -2.99714,-3.254001 3.89756,-0.363529 2.35653,2.042493 3.46245,2.830971 0.96344,-0.731086 1.67351,-1.135058 2.79217,-1.227889 l -0.002,0.495944 c -2.36684,0.248613 -3.68158,2.471016 -4.92058,4.027279 z"
           id="path894"
           sodipodi:nodetypes="cccccccc" />
        <path
           style="fill:#338000;fill-opacity:1;stroke:none;stroke-width:0.264583px;stroke-linecap:butt;stroke-linejoin:miter;stroke-opacity:1"
           d="m 122.41912,69.779327 c -0.98045,-4.14537 -1.49002,-3.927484 -2.17277,-5.314354 1.11987,0.7588 2.39511,1.359487 2.97342,2.669447 0.36972,-1.420626 1.43474,-2.706247 2.19375,-4.051287 -0.001,1.547834 0.20942,3.215436 -0.17462,4.54721 0.83078,-0.622239 2.17133,-1.084008 4.50543,-1.233011 -1.58566,0.995417 -3.0343,1.694363 -5.26752,4.091069 z"
           id="path884"
           sodipodi:nodetypes="cccccccc" />
        <path
           d="m 106.99043,69.736452 c -1.49931,-1.367015 -4.35461,-2.182815 -7.375272,-2.182815 -0.71658,0 -1.45521,0.0441 -2.17179,0.143317 -0.011,0 -0.0331,0.01102 -0.0441,0.01102 -2.7671,0.56224 -4.7625,1.730818 -5.99722,3.516757 -0.83785,1.212675 -1.20165,2.513544 -1.20165,3.792365 0,2.193839 1.05833,4.321539 2.50252,5.886989 1.33394,1.43316 3.02066,2.38125 5.08221,2.83325 0.74965,0.16536 1.51033,0.24253 2.282032,0.24253 0.84887,0 1.70877,-0.0882 2.59071,-0.2756 1.21268,-0.30868 2.31511,-0.82683 3.3073,-1.56546 1.62057,-1.21267 2.43637,-2.56866 2.43637,-4.101046 0,-1.113456 -0.30868,-1.852085 -1.01423,-2.381253 -1.02527,-0.771702 -2.68994,-1.102431 -4.59715,-1.102431 -1.33394,0 -3.108852,0.165364 -3.847482,0.275608 l -0.46302,0.06614 c -0.4079,0.06615 -0.58429,0.363803 -0.58429,0.683508 0,0.363803 0.25356,0.749654 0.68351,0.749654 0.0441,0 0.0772,0 0.12126,-0.01103 l 0.46302,-0.06615 c 0.70556,-0.110243 2.458432,-0.253559 3.704182,-0.253559 0.80477,0 1.48828,0.05512 2.03949,0.187414 1.28985,0.30868 2.06155,0.496094 2.06155,1.807987 0,0.440968 -0.0992,0.859898 -0.28663,1.256768 -0.65044,1.36702 -2.61276,2.62379 -4.34358,3.06476 -0.78273,0.16537 -1.54341,0.24254 -2.25999,0.24254 -2.734032,0 -4.916842,-1.11346 -6.327952,-2.63481 -1.21268,-1.30087 -2.11667,-3.075786 -2.11667,-4.905823 0,-1.003213 0.27561,-2.01745 0.93707,-2.976566 1.01423,-1.466234 2.71198,-2.436374 5.09323,-2.921444 0.65043,-0.08819 1.31189,-0.132291 1.97335,-0.132291 2.612762,0 5.137332,0.661459 6.383082,1.807988 0.48507,0.440972 1.19063,0.03307 1.19063,-0.551216 0,-0.176389 -0.0661,-0.363803 -0.22049,-0.507119 z"
           style="fill:#338000;stroke:#338000;stroke-width:0.5;stroke-miterlimit:4;stroke-dasharray:none"
           id="path859" />
        <path
           d="m 111.36708,80.102131 c 0.30868,0 0.88195,-0.31971 0.88195,-0.65044 0,-0.0882 -0.0441,-0.19843 -0.0441,-0.38585 0,-0.34175 0.0441,-0.66146 0.0882,-1.32291 0.11024,-0.8158 0.2756,-1.59853 0.48507,-2.33716 0.88194,-3.108857 2.25998,-4.784553 4.12309,-5.016064 0.41892,-0.0441 0.60634,-0.352778 0.60634,-0.672483 0,-0.374827 -0.25356,-0.749654 -0.69453,-0.749654 -0.0331,0 -0.0551,0 -0.0882,0 -1.84106,0.231511 -3.28525,1.400089 -4.3546,3.505733 -0.0331,-1.278821 -0.1323,-2.215888 -0.28664,-2.811201 -0.0772,-0.275608 -0.34175,-0.540191 -0.6835,-0.540191 -0.44098,0 -0.69454,0.308681 -0.69454,0.727605 0,0.121267 0.011,0.264583 0.0551,0.418924 0.0882,0.352778 0.15434,1.333942 0.19843,2.965541 0.011,0.56224 0.0221,1.069359 0.0221,1.53238 0,1.28985 -0.16536,2.83325 -0.20946,3.63802 -0.022,0.26459 -0.15434,0.57327 -0.15434,0.84888 0,0.33073 0.34175,0.84887 0.74965,0.84887 z"
           style="fill:#338000;stroke:#338000;stroke-width:0.5;stroke-miterlimit:4;stroke-dasharray:none"
           id="path861" />
        <path
           d="m 122.71111,68.581719 c -0.0882,-0.03307 -0.17639,-0.0441 -0.26459,-0.03307 -1.30087,0.05512 -2.45842,0.551216 -3.48368,1.488283 -1.02526,0.937067 -1.6316,2.127693 -1.84106,3.593927 -0.0441,0.308681 -0.0661,0.606338 -0.0661,0.89297 0,1.124482 0.31971,2.160762 0.93707,3.119882 0.92604,1.41111 2.42535,2.48047 4.59714,2.48047 1.16858,0 2.28203,-0.35278 3.15295,-0.91502 1.35599,-0.87092 2.4474,-2.53559 2.4474,-4.55304 0,-1.355991 -0.35278,-2.458423 -0.98116,-3.362417 -1.16858,-1.697745 -2.66789,-2.601739 -4.49792,-2.711982 z"
           style="fill:#d40000;stroke:#aa0000;stroke-width:0.3;stroke-miterlimit:4;stroke-dasharray:none"
           id="path863"
           sodipodi:nodetypes="scssscscscss" />
        <path
           d="m 131.80616,75.736501 c 0,-0.57326 0.12127,-1.190626 0.35278,-1.819012 0.62839,-1.686721 2.14974,-3.230125 4.25539,-3.230125 0.42995,0 0.89297,0.06615 1.37804,0.209462 0.0772,0.02205 0.15434,0.03307 0.22048,0.03307 0.4079,0 0.67249,-0.385851 0.67249,-0.749654 0,-0.275608 -0.14332,-0.551216 -0.48507,-0.650434 -0.65044,-0.198438 -1.2678,-0.297657 -1.87414,-0.297657 -2.75608,0 -4.69636,2.050523 -5.51215,4.200265 -0.28664,0.771702 -0.44098,1.532385 -0.44098,2.271015 0,0.55121 0.0882,1.0914 0.24254,1.62057 0.49609,1.66467 1.97335,2.84428 4.22231,2.84428 1.00321,0 2.17179,-0.24254 3.48368,-0.71659 0.25356,-0.0882 0.48507,-0.35277 0.48507,-0.69453 0,-0.38585 -0.34175,-0.69453 -0.71658,-0.69453 -0.0882,0 -0.16536,0.011 -0.25355,0.0441 -1.14653,0.41892 -2.13872,0.61736 -2.98759,0.61736 -1.95131,0 -3.04272,-1.1796 -3.04272,-2.98759 z"
           style="fill:#338000;stroke:#338000;stroke-width:0.5;stroke-miterlimit:4;stroke-dasharray:none"
           id="path865" />
        <path
           d="m 142.5659,76.276691 c 0.0551,0.011 0.12126,0.022 0.17639,0.022 3.06476,0 5.40191,-0.55122 7.00044,-1.631599 1.14653,-0.782726 1.79696,-1.664672 1.79696,-2.866322 0,-0.352778 -0.0661,-0.683508 -0.20946,-1.003213 -0.51814,-1.146529 -1.81901,-1.796964 -3.42856,-1.796964 -2.10565,0 -3.80339,0.639411 -5.10426,1.94028 -1.00322,1.003213 -1.5875,2.215888 -1.75287,3.604952 -0.0331,0.275606 -0.0441,0.529166 -0.0441,0.782726 0,1.1355 0.31971,2.01745 0.89297,2.82223 1.01424,1.43316 2.4915,2.00642 4.15617,2.00642 1.60955,0 3.38447,-0.54019 5.07119,-1.36701 0.22048,-0.11025 0.39687,-0.35278 0.39687,-0.67249 0,-0.39687 -0.34175,-0.69453 -0.71658,-0.69453 -0.11024,0 -0.20946,0.022 -0.3197,0.0772 -1.64263,0.8158 -3.09784,1.2237 -4.35461,1.2237 -1.86311,0 -3.14193,-0.91502 -3.56085,-2.4474 z m -0.12127,-1.34497 c 0.20946,-2.767099 2.53559,-4.497917 5.46806,-4.497917 0.72761,0 1.28985,0.154341 1.70877,0.474046 0.29766,0.231511 0.49609,0.429948 0.49609,0.848872 0,0.694532 -0.4079,1.201651 -1.16857,1.719794 -1.36702,0.926043 -3.42857,1.389065 -6.20669,1.389065 -0.0992,0 -0.19844,0.0221 -0.29766,0.0661 z"
           style="fill:#338000;stroke:#338000;stroke-width:0.5;stroke-miterlimit:4;stroke-dasharray:none"
           id="path867" />
        <path
           d="m 154.49421,80.102131 c 0.30868,0 0.88194,-0.31971 0.88194,-0.65044 0,-0.0882 -0.0441,-0.19843 -0.0441,-0.38585 0,-0.34175 0.0441,-0.66146 0.0882,-1.32291 0.11024,-0.8158 0.27561,-1.59853 0.48507,-2.33716 0.88195,-3.108857 2.25999,-4.784553 4.12309,-5.016064 0.41893,-0.0441 0.60634,-0.352778 0.60634,-0.672483 0,-0.374827 -0.25356,-0.749654 -0.69453,-0.749654 -0.0331,0 -0.0551,0 -0.0882,0 -1.84107,0.231511 -3.28525,1.400089 -4.35461,3.505733 -0.0331,-1.278821 -0.13229,-2.215888 -0.28663,-2.811201 -0.0772,-0.275608 -0.34176,-0.540191 -0.68351,-0.540191 -0.44097,0 -0.69453,0.308681 -0.69453,0.727605 0,0.121267 0.011,0.264583 0.0551,0.418924 0.0882,0.352778 0.15434,1.333942 0.19844,2.965541 0.011,0.56224 0.0221,1.069359 0.0221,1.53238 0,1.28985 -0.16537,2.83325 -0.20947,3.63802 -0.022,0.26459 -0.15434,0.57327 -0.15434,0.84888 0,0.33073 0.34176,0.84887 0.74966,0.84887 z"
           style="fill:#338000;stroke:#338000;stroke-width:0.5;stroke-miterlimit:4;stroke-dasharray:none"
           id="path869" />
        <path
           d="m 171.01966,69.794394 c -0.0551,-0.396875 -0.39688,-0.606337 -0.72761,-0.606337 -0.34175,0 -0.67248,0.209462 -0.70555,0.628386 -0.31971,3.560854 -1.12448,6.162588 -2.4033,7.827268 -0.56224,0.7276 -1.05834,1.08038 -1.51033,1.08038 -0.48507,0 -0.91502,-0.42995 -1.2678,-1.28985 -0.42995,-1.05833 -0.65043,-2.48047 -0.65043,-4.27743 0,-1.025262 0.0661,-2.171791 0.20946,-3.428563 0,-0.03307 0,-0.06615 0,-0.08819 0,-0.451997 -0.36381,-0.683508 -0.71658,-0.683508 -0.33073,0 -0.66146,0.198438 -0.70556,0.606337 -0.14332,1.30087 -0.22049,2.491496 -0.22049,3.571879 0,1.995395 0.25356,3.604945 0.76068,4.828645 0.57327,1.40009 1.36702,2.18282 2.57969,2.18282 2.01745,0 3.48369,-2.61277 4.16719,-4.4869 -0.0551,3.72622 -0.65043,8.65409 -2.66788,9.701399 -0.26458,0.14331 -0.56224,0.20946 -0.88195,0.20946 -0.46302,0 -0.98116,-0.14332 -1.56545,-0.440969 -0.56224,-0.24254 -1.01424,0.209459 -1.01424,0.639409 0,0.26458 0.1323,0.52917 0.37483,0.65043 0.7717,0.37483 1.52136,0.57327 2.23794,0.57327 1.0914,0 2.08359,-0.47405 2.82222,-1.49931 1.42214,-1.951299 2.13872,-5.379869 2.13872,-10.296709 0,-1.168575 -0.0441,-2.414323 -0.12127,-3.748265 z"
           style="fill:#338000;stroke:#338000;stroke-width:0.5;stroke-miterlimit:4;stroke-dasharray:none"
           id="path871" />
        <path
           d="m 116.13583,90.372153 c 1.0914,0 1.89618,0.13229 2.39227,0.39687 0.72761,0.37483 1.47726,1.11346 1.47726,2.0836 0,0.14331 -0.022,0.29765 -0.0551,0.45199 -0.22049,0.9481 -0.8158,1.64263 -1.79696,2.09462 -0.80478,0.374831 -1.62058,0.551221 -2.48048,0.551221 -0.18741,0 -0.37482,0 -0.56224,-0.0221 -2.09462,-0.19844 -3.82543,-0.903991 -5.19245,-2.094621 -0.14331,-0.12127 -0.29766,-0.17639 -0.44097,-0.17639 -0.38585,0 -0.73863,0.3638 -0.73863,0.74966 0,0.17638 0.0662,0.35277 0.24253,0.50711 1.59853,1.400091 3.58291,2.204866 5.98621,2.436376 0.24253,0.0221 0.49609,0.0331 0.73863,0.0331 1.03628,0 2.02847,-0.20946 2.95451,-0.63941 1.46624,-0.672475 2.37023,-1.730816 2.70096,-3.174996 0.0551,-0.25356 0.0882,-0.4961 0.0882,-0.72761 0,-1.53238 -1.12448,-2.7671 -2.22692,-3.32934 -0.7276,-0.38585 -1.77491,-0.57327 -3.11988,-0.57327 -0.62838,0 -1.34496,0.0661 -1.89618,0.0661 -1.55443,0 -2.52457,-0.30868 -3.30729,-1.00321 -0.50712,-0.452 -0.95912,-1.14653 -0.95912,-2.00643 0,-0.25356 0.0441,-0.51814 0.13229,-0.79375 0.44097,-1.333939 1.84106,-1.984379 3.63803,-1.984379 2.64583,0 4.82865,1.03629 6.23976,2.392279 0.14332,0.13229 0.3197,0.19844 0.51814,0.19844 0.41893,-0.011 0.69453,-0.3638 0.69453,-0.72761 0,-0.187409 -0.0661,-0.363799 -0.22048,-0.507119 -1.6757,-1.59852 -4.16719,-2.78915 -7.30912,-2.78915 -2.4033,0 -4.29949,1.11346 -4.91685,2.96554 -0.14332,0.429949 -0.20946,0.848879 -0.20946,1.245749 0,1.28985 0.67248,2.37023 1.41111,3.04271 1.10243,1.00322 2.34818,1.40009 4.28846,1.40009 0.57327,0 1.27882,-0.0661 1.92926,-0.0661 z"
           style="fill:#552200;stroke:#552200;stroke-width:0.5;stroke-miterlimit:4;stroke-dasharray:none"
           id="path873" />
        <path
           d="m 129.39808,97.019809 c 0,-0.28663 -0.17639,-0.529165 -0.39688,-0.650435 -0.18741,-0.0992 -0.3638,-0.39687 -0.52916,-0.881941 -0.36381,-1.08038 -0.5402,-2.94349 -0.5402,-5.61138 0,-0.58429 0,-1.21267 0.0221,-1.87413 0.57327,0 1.13551,0.011 1.70877,0.011 h 0.011 c 0.45199,0 0.6835,-0.35278 0.6835,-0.70555 0,-0.36381 -0.23151,-0.71659 -0.69453,-0.72761 l -1.66467,-0.011 c 0.0331,-0.68351 0.0992,-2.667889 0.0992,-3.869539 0,-0.22049 -0.011,-0.4079 -0.011,-0.56224 -0.011,-0.452 -0.36381,-0.672479 -0.71659,-0.672479 -0.35277,0 -0.71658,0.231509 -0.71658,0.683509 0,0.16536 0.011,0.35277 0.011,0.58428 0,1.17961 -0.0661,3.175009 -0.0992,3.825439 l -2.21589,-0.011 c -0.37482,0 -0.71658,0.34175 -0.71658,0.69453 0,0.38585 0.33073,0.73863 0.71658,0.73863 0.72761,0 1.44419,0.011 2.17179,0.011 -0.0221,0.72761 -0.0331,1.42214 -0.0331,2.07257 0,1.30087 0.0441,2.4474 0.13229,3.42857 0.19844,2.259981 0.7717,3.649046 1.71979,4.156156 0.11025,0.0551 0.22049,0.0882 0.33073,0.0882 0.38586,0 0.72761,-0.31971 0.72761,-0.71658 z"
           style="fill:#552200;stroke:#552200;stroke-width:0.5;stroke-miterlimit:4;stroke-dasharray:none"
           id="path875" />
        <path
           d="m 136.74027,85.940373 c -0.0882,-0.0331 -0.17638,-0.0441 -0.26458,-0.0331 -1.30087,0.0551 -2.45842,0.55121 -3.48368,1.48828 -1.02527,0.93707 -1.6316,2.12769 -1.84106,3.59393 -0.0441,0.30868 -0.0661,0.60633 -0.0661,0.89297 0,1.12448 0.3197,2.16076 0.93707,3.11988 0.92604,1.411111 2.42535,2.480466 4.59714,2.480466 1.16857,0 2.28203,-0.35278 3.15295,-0.915015 1.35599,-0.87092 2.4474,-2.535591 2.4474,-4.553041 0,-1.35599 -0.35278,-2.45842 -0.98116,-3.36242 -1.16858,-1.69774 -2.66789,-2.60174 -4.49793,-2.71198 z"
           style="fill:#ff6600;stroke:#d45500;stroke-width:0.3;stroke-miterlimit:4;stroke-dasharray:none"
           id="path877"
           sodipodi:nodetypes="ccssscscsccc" />
        <path
           d="m 145.15183,97.460779 c 0.30868,0 0.88194,-0.3197 0.88194,-0.65043 0,-0.0882 -0.0441,-0.198435 -0.0441,-0.385845 0,-0.34176 0.0441,-0.66146 0.0882,-1.322921 0.11024,-0.8158 0.27561,-1.59853 0.48507,-2.33716 0.88195,-3.10886 2.25999,-4.78455 4.1231,-5.01606 0.41892,-0.0441 0.60633,-0.35278 0.60633,-0.67249 0,-0.37482 -0.25356,-0.74965 -0.69453,-0.74965 -0.0331,0 -0.0551,0 -0.0882,0 -1.84106,0.23151 -3.28525,1.40009 -4.35461,3.50573 -0.0331,-1.27882 -0.13229,-2.21588 -0.28663,-2.8112 -0.0772,-0.2756 -0.34175,-0.54019 -0.68351,-0.54019 -0.44097,0 -0.69453,0.30868 -0.69453,0.72761 0,0.12126 0.011,0.26458 0.0551,0.41892 0.0882,0.35278 0.15434,1.33394 0.19844,2.96554 0.011,0.56224 0.0221,1.06936 0.0221,1.53238 0,1.28985 -0.16537,2.83325 -0.20946,3.638031 -0.0221,0.26458 -0.15435,0.57326 -0.15435,0.84887 0,0.330725 0.34176,0.848865 0.74966,0.848865 z"
           style="fill:#552200;stroke:#552200;stroke-width:0.5;stroke-miterlimit:4;stroke-dasharray:none"
           id="path879" />
        <path
           d="m 152.40583,93.635343 c 0.0551,0.011 0.12126,0.0221 0.17638,0.0221 3.06476,0 5.40192,-0.55121 7.00045,-1.6316 1.14652,-0.78272 1.79696,-1.66467 1.79696,-2.86632 0,-0.35278 -0.0662,-0.68351 -0.20946,-1.00321 -0.51815,-1.14653 -1.81901,-1.79697 -3.42856,-1.79697 -2.10565,0 -3.80339,0.63941 -5.10426,1.94028 -1.00322,1.00322 -1.58751,2.21589 -1.75287,3.60496 -0.0331,0.2756 -0.0441,0.52916 -0.0441,0.78272 0,1.13551 0.31971,2.01745 0.89297,2.82223 1.01424,1.433156 2.4915,2.006416 4.15617,2.006416 1.60955,0 3.38447,-0.54019 5.07119,-1.367005 0.22048,-0.11025 0.39687,-0.35278 0.39687,-0.672491 0,-0.39687 -0.34175,-0.69453 -0.71658,-0.69453 -0.11024,0 -0.20946,0.0221 -0.3197,0.0772 -1.64263,0.815801 -3.09784,1.223701 -4.35461,1.223701 -1.86311,0 -3.14193,-0.915021 -3.56085,-2.447401 z m -0.12127,-1.34496 c 0.20946,-2.76711 2.53559,-4.49792 5.46806,-4.49792 0.7276,0 1.28984,0.15434 1.70877,0.47404 0.29766,0.23151 0.49609,0.42995 0.49609,0.84887 0,0.69454 -0.4079,1.20165 -1.16857,1.7198 -1.36702,0.92604 -3.42857,1.38906 -6.2067,1.38906 -0.0992,0 -0.19843,0.022 -0.29765,0.0661 z"
           style="fill:#552200;stroke:#552200;stroke-width:0.5;stroke-miterlimit:4;stroke-dasharray:none"
           id="path881" />
        <path
           sodipodi:nodetypes="scssscscscss"
           id="path886"
           style="opacity:0.316021;fill:#000000;stroke-width:0.0787327"
           d="m 118.70809,73.771943 c -0.007,-0.0029 -0.0126,-0.0038 -0.0189,-0.0029 -0.0929,0.0048 -0.17557,0.04785 -0.24879,0.129185 -0.0732,0.08134 -0.11652,0.184685 -0.13147,0.311956 -0.003,0.02679 -0.005,0.05263 -0.005,0.07751 0,0.09761 0.0228,0.187557 0.067,0.270808 0.0661,0.122487 0.1732,0.215309 0.3283,0.215309 0.0834,0 0.16297,-0.0306 0.22517,-0.07943 0.0968,-0.07559 0.17478,-0.22009 0.17478,-0.395207 0,-0.117701 -0.0252,-0.213393 -0.0701,-0.29186 -0.0834,-0.147366 -0.19052,-0.225833 -0.32121,-0.235403 z" />
        <path
           d="m 118.85049,71.806558 c -0.006,-0.0028 -0.0114,-0.0036 -0.0172,-0.0028 -0.0845,0.0046 -0.15974,0.04594 -0.22636,0.124031 -0.0666,0.07809 -0.10602,0.177316 -0.11963,0.299509 -0.003,0.02572 -0.004,0.05053 -0.004,0.07442 0,0.09371 0.0207,0.180073 0.0609,0.260003 0.0602,0.1176 0.15758,0.206718 0.29871,0.206718 0.0759,0 0.14828,-0.02938 0.20487,-0.07626 0.0881,-0.07257 0.15903,-0.211308 0.15903,-0.379438 0,-0.113005 -0.0229,-0.204879 -0.0638,-0.280215 -0.0759,-0.141486 -0.17335,-0.216822 -0.29226,-0.22601 z"
           style="opacity:0.316021;fill:#000000;stroke-width:0.0735876"
           id="path888"
           sodipodi:nodetypes="scssscscscss" />
        <path
           d="m 120.96674,70.8164 c -0.005,-0.0017 -0.008,-0.0022 -0.0122,-0.0017 -0.06,0.0028 -0.11339,0.02798 -0.16067,0.07555 -0.0473,0.04757 -0.0753,0.108002 -0.0849,0.182429 -0.002,0.01567 -0.003,0.03078 -0.003,0.04533 0,0.05708 0.0147,0.109682 0.0433,0.158367 0.0427,0.07163 0.11186,0.125911 0.21202,0.125911 0.0539,0 0.10525,-0.01789 0.14542,-0.04645 0.0625,-0.04421 0.11288,-0.128707 0.11288,-0.231114 0,-0.06883 -0.0163,-0.124791 -0.0453,-0.170678 -0.0539,-0.08618 -0.12304,-0.132065 -0.20745,-0.137661 z"
           style="opacity:0.316021;fill:#000000;stroke-width:0.048385"
           id="path890"
           sodipodi:nodetypes="scssscscscss" />
        <path
           sodipodi:nodetypes="scssscscscss"
           id="path892"
           style="opacity:0.316021;fill:#000000;stroke-width:0.0433862"
           d="m 120.71045,72.769173 c -0.004,-0.0016 -0.007,-0.0021 -0.0105,-0.0016 -0.0518,0.0026 -0.0979,0.02607 -0.13868,0.07037 -0.0408,0.04431 -0.065,0.100606 -0.0733,0.169936 -0.002,0.01459 -0.003,0.02867 -0.003,0.04222 0,0.05317 0.0127,0.102171 0.0374,0.147521 0.0369,0.06672 0.0965,0.117288 0.18301,0.117288 0.0465,0 0.0908,-0.01667 0.12552,-0.04327 0.054,-0.04118 0.0974,-0.119892 0.0974,-0.215286 0,-0.06412 -0.014,-0.116245 -0.0391,-0.158989 -0.0465,-0.08028 -0.1062,-0.123021 -0.17905,-0.128234 z" />
        <path
           d="m 133.04103,91.050355 c -0.007,-0.0029 -0.0126,-0.0038 -0.0189,-0.0029 -0.0929,0.0048 -0.17557,0.04785 -0.24879,0.129185 -0.0732,0.08134 -0.11652,0.184685 -0.13147,0.311956 -0.003,0.02679 -0.005,0.05263 -0.005,0.07751 0,0.09761 0.0228,0.187557 0.067,0.270808 0.0661,0.122487 0.1732,0.215309 0.3283,0.215309 0.0834,0 0.16297,-0.0306 0.22517,-0.07943 0.0968,-0.07559 0.17478,-0.22009 0.17478,-0.395207 0,-0.117701 -0.0252,-0.213393 -0.0701,-0.29186 -0.0834,-0.147366 -0.19052,-0.225833 -0.32121,-0.235403 z"
           style="opacity:0.316021;fill:#000000;stroke-width:0.0787327"
           id="path896"
           sodipodi:nodetypes="scssscscscss" />
        <path
           sodipodi:nodetypes="scssscscscss"
           id="path898"
           style="opacity:0.316021;fill:#000000;stroke-width:0.0735876"
           d="m 133.18343,89.08497 c -0.006,-0.0028 -0.0114,-0.0036 -0.0172,-0.0028 -0.0845,0.0046 -0.15974,0.04594 -0.22636,0.124031 -0.0666,0.07809 -0.10602,0.177316 -0.11963,0.299509 -0.003,0.02572 -0.004,0.05053 -0.004,0.07442 0,0.09371 0.0207,0.180073 0.0609,0.260003 0.0602,0.1176 0.15758,0.206718 0.29871,0.206718 0.0759,0 0.14828,-0.02938 0.20487,-0.07626 0.0881,-0.07257 0.15903,-0.211308 0.15903,-0.379438 0,-0.113005 -0.0229,-0.204879 -0.0638,-0.280215 -0.0759,-0.141486 -0.17335,-0.216822 -0.29226,-0.22601 z" />
        <path
           sodipodi:nodetypes="scssscscscss"
           id="path900"
           style="opacity:0.316021;fill:#000000;stroke-width:0.048385"
           d="m 135.29968,88.094812 c -0.005,-0.0017 -0.008,-0.0022 -0.0122,-0.0017 -0.06,0.0028 -0.11339,0.02798 -0.16067,0.07555 -0.0473,0.04757 -0.0753,0.108002 -0.0849,0.182429 -0.002,0.01567 -0.003,0.03078 -0.003,0.04533 0,0.05708 0.0147,0.109682 0.0433,0.158367 0.0427,0.07163 0.11186,0.125911 0.21202,0.125911 0.0539,0 0.10525,-0.01789 0.14542,-0.04645 0.0625,-0.04421 0.11288,-0.128707 0.11288,-0.231114 0,-0.06883 -0.0163,-0.124791 -0.0453,-0.170678 -0.0539,-0.08618 -0.12304,-0.132065 -0.20745,-0.137661 z" />
        <path
           d="m 135.04339,90.047585 c -0.004,-0.0016 -0.007,-0.0021 -0.0105,-0.0016 -0.0518,0.0026 -0.0979,0.02607 -0.13868,0.07037 -0.0408,0.04431 -0.065,0.100606 -0.0733,0.169936 -0.002,0.01459 -0.003,0.02867 -0.003,0.04222 0,0.05317 0.0127,0.102171 0.0374,0.147521 0.0369,0.06672 0.0965,0.117288 0.18301,0.117288 0.0465,0 0.0908,-0.01667 0.12552,-0.04327 0.054,-0.04118 0.0974,-0.119892 0.0974,-0.215286 0,-0.06412 -0.014,-0.116245 -0.0391,-0.158989 -0.0465,-0.08028 -0.1062,-0.123021 -0.17905,-0.128234 z"
           style="opacity:0.316021;fill:#000000;stroke-width:0.0433862"
           id="path902"
           sodipodi:nodetypes="scssscscscss" />
      </g>
    </g>
    <text
       style="font-size:10.5833px;line-height:1.25;font-family:Chandas;-inkscape-font-specification:Chandas;white-space:pre;shape-inside:url(#rect18);"
       id="text16"
       xml:space="preserve" />
  </g>
</svg>
